<svg xmlns="http://www.w3.org/2000/svg" width="192" height="192" viewBox="0 0 192 192">
<g>
<path d="M 56.20 181.07 C38.74,186.91 37.55,187.06 38.34,183.25 C38.66,181.74 40.11,174.31 41.57,166.74 L 44.23 152.97 L 40.62 144.59 C36.33,134.59 34.64,124.35 35.55,113.75 C36.08,107.53 35.94,106.00 34.84,106.00 C29.92,106.00 22.00,96.30 22.00,90.29 C22.01,86.48 25.27,81.43 28.96,79.52 C31.39,78.27 32.00,77.30 32.02,74.72 C32.07,65.06 38.65,48.77 46.61,38.64 C51.44,32.47 63.35,23.04 66.33,23.02 C69.37,22.99 67.68,25.27 61.54,29.47 C50.36,37.14 41.85,49.51 37.43,64.52 C35.23,72.00 34.87,87.91 36.85,90.31 C38.07,91.78 43.11,91.95 87.79,91.96 C117.53,91.97 137.76,92.36 138.32,92.92 C138.84,93.44 138.99,94.57 138.66,95.43 C138.13,96.83 132.54,97.00 88.11,97.00 L 38.15 97.00 L 35.15 94.47 C33.50,93.08 31.85,90.61 31.50,88.98 C30.71,85.38 29.39,84.43 27.46,86.04 C24.55,88.45 26.36,95.30 31.00,99.50 C33.16,101.45 34.76,101.50 94.36,101.66 C129.35,101.75 157.07,101.42 159.18,100.89 C165.58,99.27 169.59,92.30 167.39,86.58 C166.33,83.81 164.55,84.88 162.69,89.42 C161.40,92.54 159.89,94.30 157.53,95.42 C153.36,97.40 147.63,97.46 146.04,95.54 C144.09,93.20 145.77,92.00 151.00,92.00 C157.26,92.00 159.01,89.82 158.98,82.03 C158.92,64.34 152.68,48.61 141.17,37.11 C135.07,31.01 124.89,24.00 122.13,24.00 C121.32,24.00 121.00,31.85 121.00,51.88 C121.00,76.04 120.79,79.93 119.42,81.06 C118.12,82.15 117.69,82.13 116.94,80.94 C116.44,80.15 116.02,64.55 116.02,46.27 L 116.00 13.05 L 113.29 11.27 C109.34,8.68 84.65,8.69 80.69,11.28 L 78.03 13.03 L 77.76 47.26 C77.54,76.91 77.30,81.50 76.00,81.50 C74.71,81.50 74.43,77.28 74.00,51.50 C73.46,19.25 73.90,12.65 76.80,9.76 C81.03,5.52 97.76,3.84 109.86,6.43 C117.11,7.99 118.60,9.14 120.46,14.60 C121.54,17.79 122.90,19.14 127.89,22.00 C141.77,29.95 150.72,39.36 156.96,52.56 C160.27,59.57 162.96,69.47 162.99,74.72 C163.00,77.30 163.61,78.27 166.04,79.52 C169.47,81.29 172.99,86.41 173.00,89.63 C173.01,95.11 168.99,100.70 162.07,104.84 L 158.64 106.90 L 158.86 117.70 C159.01,124.87 158.56,130.51 157.53,134.50 C149.69,164.85 120.24,185.08 89.69,181.10 C84.85,180.46 78.64,179.09 75.89,178.05 L 70.90 176.15 ZM 49.00 172.61 C49.00,172.67 49.00,172.73 49.00,172.79 C49.00,173.16 48.99,173.45 49.13,173.63 C49.59,174.19 51.55,173.53 59.88,170.74 C60.27,170.61 60.67,170.48 61.09,170.34 C70.18,167.29 72.40,166.87 74.26,167.83 C82.87,172.27 96.87,174.07 107.18,172.05 C123.89,168.78 137.71,158.11 144.95,142.89 C150.55,131.11 152.25,117.65 149.37,107.75 C148.90,106.11 145.56,106.00 97.56,106.00 C52.00,106.00 46.10,106.18 44.93,107.58 C43.00,109.91 43.22,127.15 45.27,133.77 C46.17,136.67 48.30,141.66 50.01,144.87 L 53.11 150.69 L 51.06 160.95 C49.93,166.60 49.00,171.84 49.00,172.61 ZM 70.88 129.89 C67.43,131.09 67.23,131.11 65.00,130.29 C58.61,127.96 56.87,119.83 61.69,114.80 C65.39,110.94 70.13,110.98 74.08,114.92 C78.87,119.71 77.16,127.70 70.88,129.89 ZM 132.89 127.42 C131.26,129.49 129.99,130.00 126.52,130.00 C122.90,130.00 121.75,129.49 119.59,126.92 C116.00,122.66 116.17,118.58 120.11,114.90 C121.81,113.31 124.31,112.00 125.66,112.00 C129.46,112.00 133.60,114.61 134.95,117.88 C136.35,121.25 135.82,123.69 132.89,127.42 ZM 100.45 129.58 C98.59,130.36 96.94,130.97 96.78,130.94 C92.28,129.92 88.00,124.98 88.00,120.79 C88.00,117.01 92.83,112.00 96.47,112.00 C99.80,112.00 104.57,114.43 105.38,116.54 C106.34,119.06 106.11,123.92 104.92,126.15 C104.33,127.26 102.31,128.81 100.45,129.58 Z" fill="rgb(12,9,5)"/>
<path d="M 121.50 26.51 L 121.23 53.14 C121.10,66.13 120.96,73.04 120.61,76.78 C120.93,72.96 121.00,65.77 121.00,51.88 C121.00,38.20 121.15,30.21 121.50,26.51 ZM 129.74 27.81 C127.51,26.58 125.63,26.02 124.18,26.19 L 121.50 26.50 C121.66,24.79 121.87,24.00 122.13,24.00 C123.43,24.00 126.36,25.54 129.74,27.81 ZM 150.96 50.06 C156.18,59.41 158.94,70.29 158.98,82.03 C158.94,70.40 156.14,59.41 150.96,50.06 Z" fill="rgb(199,161,50)"/>
<path d="M 121.50 26.51 L 121.50 26.50 L 124.18 26.19 C125.63,26.02 127.51,26.58 129.74,27.81 C133.55,30.38 137.94,33.87 141.17,37.11 C145.04,40.97 148.32,45.32 150.96,50.06 C156.14,59.41 158.94,70.40 158.98,82.03 C159.01,89.82 157.26,92.00 151.00,92.00 C145.77,92.00 144.09,93.20 146.04,95.54 C147.63,97.46 153.36,97.40 157.53,95.42 C159.89,94.30 161.40,92.54 162.69,89.42 C164.55,84.88 166.33,83.81 167.39,86.58 C169.59,92.30 165.58,99.27 159.18,100.89 C157.07,101.42 129.35,101.75 94.36,101.66 C34.76,101.50 33.16,101.45 31.00,99.50 C26.36,95.30 24.55,88.45 27.46,86.04 C29.39,84.43 30.71,85.38 31.50,88.98 C31.85,90.61 33.50,93.08 35.15,94.47 L 38.15 97.00 L 88.11 97.00 C132.54,97.00 138.13,96.83 138.66,95.43 C138.99,94.57 138.84,93.44 138.32,92.92 C137.76,92.36 117.53,91.97 87.79,91.96 C43.11,91.95 38.07,91.78 36.85,90.31 C34.87,87.91 35.23,72.00 37.43,64.52 C41.85,49.51 50.36,37.14 61.54,29.47 C67.15,25.63 69.04,23.39 67.01,23.06 C67.20,23.03 67.39,23.02 67.56,23.02 C71.89,22.99 73.68,21.16 74.31,16.10 C74.44,15.02 74.73,13.86 75.11,12.81 C73.75,17.34 73.59,27.04 74.00,51.50 C74.43,77.28 74.71,81.50 76.00,81.50 C77.30,81.50 77.54,76.91 77.76,47.26 L 78.03 13.03 L 80.69 11.28 C84.65,8.69 109.34,8.68 113.29,11.27 L 116.00 13.05 L 116.02 46.27 C116.02,64.55 116.44,80.15 116.94,80.94 C117.69,82.13 118.12,82.15 119.42,81.06 C120.00,80.58 120.38,79.60 120.61,76.78 C120.96,73.04 121.10,66.13 121.23,53.14 ZM 139.99 91.45 C142.06,92.60 142.90,92.61 144.99,91.51 C146.37,90.79 149.45,89.67 151.84,89.03 L 156.18 87.86 L 155.68 78.18 C154.87,62.64 152.69,55.34 146.05,46.00 C139.81,37.21 125.97,26.66 123.05,28.47 C122.36,28.90 122.00,38.16 122.00,55.36 C122.00,82.87 121.82,84.00 117.55,84.00 C115.52,84.00 115.50,83.67 115.82,55.50 C116.04,35.73 115.81,27.00 115.07,27.00 C114.43,27.00 114.00,24.58 114.00,20.95 C114.00,14.91 113.99,14.89 110.25,13.26 C102.26,9.78 82.08,10.82 80.50,14.80 C80.13,15.74 79.88,30.79 79.95,48.25 C80.03,69.66 79.71,80.68 78.97,82.07 C77.52,84.77 73.42,84.35 73.68,81.51 C73.78,80.42 73.34,79.21 72.71,78.82 C71.91,78.32 71.55,70.73 71.50,53.07 C71.43,24.91 71.06,23.30 66.05,28.79 C64.43,30.56 62.63,32.00 62.04,32.00 C59.56,32.00 45.00,47.90 45.00,50.61 C45.00,50.89 43.83,53.59 42.41,56.60 C38.47,64.92 35.94,82.12 37.90,87.25 L 38.95 90.00 L 52.39 90.00 C62.20,90.00 65.95,90.34 66.25,91.24 C66.54,92.13 67.15,91.99 68.40,90.74 C70.51,88.63 71.43,88.57 73.26,90.40 C74.38,91.53 80.08,91.83 102.33,91.94 C120.89,92.03 130.00,91.74 130.00,91.04 C130.00,89.54 137.06,89.83 139.99,91.45 ZM 140.57 99.11 C141.33,100.34 143.74,100.22 144.55,98.91 C144.92,98.31 144.74,97.34 144.16,96.76 C142.91,95.51 139.66,97.64 140.57,99.11 ZM 58.74 27.31 C54.37,30.59 49.35,35.14 46.61,38.64 C49.76,34.62 54.45,30.36 58.74,27.31 ZM 88.95 5.70 C95.47,4.87 103.32,5.03 109.86,6.43 C103.34,5.04 95.48,4.88 88.95,5.70 ZM 76.77 9.78 C76.73,9.83 76.69,9.87 76.64,9.92 C76.68,9.88 76.72,9.84 76.75,9.80 C76.76,9.80 76.77,9.79 76.77,9.78 Z" fill="rgb(230,180,40)"/>
<path d="M 139.99 91.45 C137.06,89.83 130.00,89.54 130.00,91.04 C130.00,91.74 120.89,92.03 102.33,91.94 C80.08,91.83 74.38,91.53 73.26,90.40 C71.43,88.57 70.51,88.63 68.40,90.74 C67.15,91.99 66.54,92.13 66.25,91.24 C65.95,90.34 62.20,90.00 52.39,90.00 L 38.95 90.00 L 37.90 87.25 C35.94,82.12 38.47,64.92 42.41,56.60 C43.83,53.59 45.00,50.89 45.00,50.61 C45.00,47.90 59.56,32.00 62.04,32.00 C62.63,32.00 64.43,30.56 66.05,28.79 C71.06,23.30 71.43,24.91 71.50,53.07 C71.55,70.73 71.91,78.32 72.71,78.82 C73.34,79.21 73.78,80.42 73.68,81.51 C73.42,84.35 77.52,84.77 78.97,82.07 C79.71,80.68 80.03,69.66 79.95,48.25 C79.88,30.79 80.13,15.74 80.50,14.80 C82.08,10.82 102.26,9.78 110.25,13.26 C113.99,14.89 114.00,14.91 114.00,20.95 C114.00,24.58 114.43,27.00 115.07,27.00 C115.81,27.00 116.04,35.73 115.82,55.50 C115.50,83.67 115.52,84.00 117.55,84.00 C121.82,84.00 122.00,82.87 122.00,55.36 C122.00,38.16 122.36,28.90 123.05,28.47 C125.97,26.66 139.81,37.21 146.05,46.00 C152.69,55.34 154.87,62.64 155.68,78.18 L 156.18 87.86 L 151.84 89.03 C149.45,89.67 146.37,90.79 144.99,91.51 C142.90,92.61 142.06,92.60 139.99,91.45 ZM 140.57 99.11 C139.66,97.64 142.91,95.51 144.16,96.76 C144.74,97.34 144.92,98.31 144.55,98.91 C143.74,100.22 141.33,100.34 140.57,99.11 Z" fill="rgb(246,184,17)"/>
<path d="M 0.00 96.00 L 0.00 0.00 L 96.00 0.00 L 192.00 0.00 L 192.00 96.00 L 192.00 192.00 L 96.00 192.00 L 0.00 192.00 L 0.00 96.00 ZM 56.20 181.07 L 70.90 176.15 L 75.89 178.05 C78.64,179.09 84.85,180.46 89.69,181.10 C120.24,185.08 149.69,164.85 157.53,134.50 C158.56,130.51 159.01,124.87 158.86,117.70 L 158.64 106.90 L 162.07 104.84 C168.99,100.70 173.01,95.11 173.00,89.63 C172.99,86.41 169.47,81.29 166.04,79.52 C163.61,78.27 163.00,77.30 162.99,74.72 C162.96,69.47 160.27,59.57 156.96,52.56 C150.72,39.36 141.77,29.95 127.89,22.00 C122.90,19.14 121.54,17.79 120.46,14.60 C118.60,9.14 117.11,7.99 109.86,6.43 C97.70,3.83 81.03,5.52 76.75,9.80 C75.71,10.85 74.61,13.69 74.31,16.10 C73.68,21.16 71.89,22.99 67.56,23.02 C63.42,23.04 52.40,31.25 46.61,38.64 C38.65,48.77 32.07,65.06 32.02,74.72 C32.00,77.30 31.39,78.27 28.96,79.52 C25.27,81.43 22.01,86.48 22.00,90.29 C22.00,96.30 29.92,106.00 34.84,106.00 C35.94,106.00 36.08,107.53 35.55,113.75 C34.64,124.35 36.33,134.59 40.62,144.59 L 44.23 152.97 L 41.57 166.74 C40.11,174.31 38.66,181.74 38.34,183.25 C37.55,187.06 38.74,186.91 56.20,181.07 ZM 49.00 172.61 C49.00,171.84 49.93,166.60 51.06,160.95 L 53.11 150.69 L 50.01 144.87 C48.30,141.66 46.17,136.67 45.27,133.77 C43.22,127.15 43.00,109.91 44.93,107.58 C46.10,106.18 52.00,106.00 97.56,106.00 C145.56,106.00 148.90,106.11 149.37,107.75 C152.25,117.65 150.55,131.11 144.95,142.89 C137.71,158.11 123.89,168.78 107.18,172.05 C96.87,174.07 82.87,172.27 74.26,167.83 C72.40,166.87 70.18,167.29 61.09,170.34 C48.57,174.53 49.00,174.45 49.00,172.61 ZM 70.88 129.89 C77.16,127.70 78.87,119.71 74.08,114.92 C70.13,110.98 65.39,110.94 61.69,114.80 C56.87,119.83 58.61,127.96 65.00,130.29 C67.23,131.11 67.43,131.09 70.88,129.89 ZM 100.45 129.58 C102.31,128.81 104.33,127.26 104.92,126.15 C106.11,123.92 106.34,119.06 105.38,116.54 C104.57,114.43 99.80,112.00 96.47,112.00 C92.83,112.00 88.00,117.01 88.00,120.79 C88.00,124.98 92.28,129.92 96.78,130.94 C96.94,130.97 98.59,130.36 100.45,129.58 ZM 132.89 127.42 C135.82,123.69 136.35,121.25 134.95,117.88 C133.60,114.61 129.46,112.00 125.66,112.00 C124.31,112.00 121.81,113.31 120.11,114.90 C116.17,118.58 116.00,122.66 119.59,126.92 C121.75,129.49 122.90,130.00 126.52,130.00 C129.99,130.00 131.26,129.49 132.89,127.42 Z" fill="rgb(253,253,253)"/>
</g>
</svg>