<svg xmlns="http://www.w3.org/2000/svg" version="1.1" width="500" height="574">
<path d="M0 0 C4.50275211 1.98831811 8.66826315 4.52160689 12.875 7.0625 C14.11730226 7.79527817 15.36064875 8.52628861 16.60498047 9.25561523 C19.1627464 10.75740524 21.71515187 12.26773157 24.26367188 13.78515625 C29.84894803 17.10508068 35.49029484 20.32747479 41.125 23.5625 C43.27384953 24.80267176 45.42228699 26.0435578 47.5703125 27.28515625 C54.04510022 31.02651656 60.52236343 34.76357483 67 38.5 C69.1666775 39.74998122 71.33334417 40.99998121 73.5 42.25 C75.10875 43.178125 75.10875 43.178125 76.75 44.125 C114.66666667 66 152.58333333 87.875 190.5 109.75 C192.11116699 110.67945435 192.11116699 110.67945435 193.75488281 111.62768555 C195.90542543 112.86847033 198.05581792 114.10951535 200.20605469 115.35083008 C205.26377813 118.27019474 210.32294493 121.18696209 215.38757324 124.09432983 C217.76923502 125.46174766 220.1500302 126.83067039 222.53076172 128.19970703 C224.20326021 129.16064553 225.87700336 130.11941672 227.55078125 131.078125 C237.85320404 137.0042974 237.85320404 137.0042974 242 140 C242 140.33 242 140.66 242 141 C241.07383629 141.00238835 240.14767258 141.00477671 239.1934433 141.00723743 C216.55276563 141.06629573 193.91219213 141.14233822 171.27162933 141.23571491 C160.32237212 141.28048858 149.3731461 141.31994459 138.42382812 141.34643555 C128.86922128 141.3695661 119.3147147 141.40312877 109.76018763 141.44870156 C104.71130089 141.47243292 99.6625122 141.49129209 94.61357117 141.49761391 C47.07178959 141.5650946 -1.54865758 145.55182304 -40 177 C-40.85335937 177.65484375 -41.70671875 178.3096875 -42.5859375 178.984375 C-48.14441846 183.29094583 -53.12718468 187.93976871 -58 193 C-58.804375 193.78375 -59.60875 194.5675 -60.4375 195.375 C-93.97530849 229.73080382 -109.6960095 274.80110593 -109.21484375 322.3984375 C-108.55230956 350.63638552 -100.1046726 376.2526097 -87 401 C-86.45730469 402.02738281 -85.91460937 403.05476563 -85.35546875 404.11328125 C-80.28029017 413.238724 -73.95649129 423.33400543 -66.33300781 430.58569336 C-65 432 -65 432 -65 434 C-64.34 434 -63.68 434 -63 434 C-61.5546875 435.50390625 -61.5546875 435.50390625 -59.875 437.5625 C-56.22458727 441.83378211 -52.35183847 445.45459571 -48 449 C-47.05253906 449.7734375 -46.10507813 450.546875 -45.12890625 451.34375 C-37.19336963 457.69565164 -28.88628578 463.07858777 -20 468 C-19.27490234 468.40750488 -18.54980469 468.81500977 -17.80273438 469.23486328 C12.42971596 486.00987148 43.91372851 489.99593645 77.83984375 490.31640625 C79.70170998 490.33703508 81.56357216 490.35803282 83.4254303 490.37937927 C88.27331206 490.43398902 93.12123166 490.48366182 97.96917725 490.53222656 C102.93716714 490.58289428 107.90510359 490.63834149 112.87304688 490.69335938 C122.58198536 490.80019097 132.29097069 490.90179525 142 491 C138.68678939 493.68952051 135.44700217 496.02901905 131.73828125 498.14453125 C130.71541016 498.73105469 129.69253906 499.31757813 128.63867188 499.921875 C127.54103516 500.54578125 126.44339844 501.1696875 125.3125 501.8125 C124.15013283 502.47741412 122.98802819 503.14278737 121.82617188 503.80859375 C119.4145854 505.1900913 117.00188656 506.56961565 114.58837891 507.94775391 C109.04829045 511.11338555 103.52506019 514.30823887 98 517.5 C95.83341204 518.75013641 93.66674512 520.000136 91.5 521.25 C89.89125 522.178125 89.89125 522.178125 88.25 523.125 C76.33333333 530 64.41666667 536.875 52.5 543.75 C51.42596924 544.36963623 50.35193848 544.98927246 49.24536133 545.62768555 C47.09416776 546.86875254 44.94296345 548.10980093 42.79174805 549.35083008 C37.74037001 552.26498344 32.6890969 555.17931818 27.63821411 558.09432983 C25.84933082 559.12673478 24.06041283 560.15907956 22.27148438 561.19140625 C20.02662364 562.48685948 17.7818281 563.7824257 15.53710938 565.078125 C13.54911751 566.22528581 11.5585681 567.36803113 9.56494141 568.50537109 C8.02019794 569.40551572 6.49032425 570.33304439 4.99365234 571.31103516 C0.74412489 574.0462117 -3.0507239 574.95600179 -8 574 C-10.86086454 572.9235636 -13.38939747 571.45483249 -16 569.875 C-17.15169678 569.20718506 -17.15169678 569.20718506 -18.32666016 568.52587891 C-20.89386892 567.03279477 -23.44637733 565.51618407 -26 564 C-27.84002688 562.92516549 -29.68120531 561.85230029 -31.5234375 560.78125 C-35.52994413 558.45061676 -39.53168838 556.11206001 -43.53125 553.76953125 C-50.28686991 549.82220683 -57.07770412 545.93740877 -63.875 542.0625 C-76.20049481 535.03439327 -88.49722363 527.95759395 -100.78222656 520.85888672 C-106.18670645 517.73675395 -111.59347412 514.61858796 -117 511.5 C-119.1666775 510.25001878 -121.33334417 509.00001879 -123.5 507.75 C-124.5725 507.13125 -125.645 506.5125 -126.75 505.875 C-136.5 500.25 -136.5 500.25 -139.74951172 498.37524414 C-141.91776264 497.1243552 -144.08605697 495.87354148 -146.25439453 494.62280273 C-151.64717915 491.51201665 -157.03922093 488.39995762 -162.4296875 485.28515625 C-173.05467656 479.14754502 -183.68984883 473.02888482 -194.3487854 466.95046997 C-206.7109614 459.9003573 -219.02748974 452.77551906 -231.30371094 445.57666016 C-233.91935607 444.04715669 -236.54069307 442.52792706 -239.1640625 441.01171875 C-240.71355106 440.11199534 -242.26303082 439.21225679 -243.8125 438.3125 C-244.50625732 437.91434082 -245.20001465 437.51618164 -245.91479492 437.10595703 C-251.96157488 433.58091454 -251.96157488 433.58091454 -254 431 C-254.3794995 428.78649342 -254.3794995 428.78649342 -254.38590336 426.14702034 C-254.40041337 424.63785897 -254.40041337 424.63785897 -254.41521651 423.0982095 C-254.4105707 421.98976551 -254.40592489 420.88132153 -254.40113831 419.73928833 C-254.40793498 418.5641898 -254.41473164 417.38909128 -254.42173427 416.17838371 C-254.43747491 412.91106683 -254.43968314 409.64406022 -254.43615115 406.37671733 C-254.43554008 402.85513281 -254.45208619 399.33362276 -254.46632385 395.81207275 C-254.49126619 388.91059481 -254.49948939 382.00919373 -254.50116099 375.10767449 C-254.50258541 369.49898615 -254.50874431 363.89032322 -254.51826286 358.28164291 C-254.54468892 342.3874746 -254.55852001 326.4933671 -254.55627144 310.59917666 C-254.55615157 309.74193176 -254.5560317 308.88468686 -254.5559082 308.00146484 C-254.55572424 306.71403135 -254.55572424 306.71403135 -254.55553656 305.40058909 C-254.55431699 291.48808806 -254.58302847 277.57583054 -254.6253233 263.66339995 C-254.66838726 249.38555675 -254.68913538 235.10783238 -254.68654197 220.82992256 C-254.6855451 212.81097057 -254.69382787 204.79227386 -254.72607613 196.77338028 C-254.75335557 189.94616262 -254.75994697 183.11931591 -254.73954786 176.29206742 C-254.72973329 172.80770893 -254.72964661 169.32406258 -254.7556076 165.83977127 C-254.77863573 162.06409727 -254.76492564 158.29031 -254.74171448 154.51467896 C-254.75714517 153.41069641 -254.77257586 152.30671387 -254.78847414 151.16927731 C-254.68987405 143.94154801 -254.68987405 143.94154801 -252.71456134 141.24561858 C-251.13107204 139.89272881 -251.13107204 139.89272881 -248 138 C-246.59476074 137.10982178 -246.59476074 137.10982178 -245.16113281 136.20166016 C-244.18499023 135.65300293 -243.20884766 135.1043457 -242.203125 134.5390625 C-241.09308105 133.91056396 -239.98303711 133.28206543 -238.83935547 132.63452148 C-237.64290579 131.96467716 -236.44645391 131.29483677 -235.25 130.625 C-233.9971559 129.91746062 -232.74472113 129.20919601 -231.49267578 128.50024414 C-229.56360515 127.40803278 -227.63430949 126.31624485 -225.70376587 125.22663879 C-219.40411151 121.67069636 -213.1370494 118.05921483 -206.875 114.4375 C-204.72658438 113.1965767 -202.57814687 111.95569131 -200.4296875 110.71484375 C-199.36975586 110.10237793 -198.30982422 109.48991211 -197.21777344 108.85888672 C-190.72874904 105.11021966 -184.2366305 101.36691333 -177.74511719 97.62255859 C-172.35251686 94.51181661 -166.96062178 91.39986673 -161.5703125 88.28515625 C-149.76370516 81.46497363 -137.93973 74.6767674 -126.09527588 67.92263794 C-118.03736788 63.32605777 -110.00582214 58.6867584 -102 54 C-93.40477328 48.9681931 -84.7768787 43.99610928 -76.125 39.0625 C-62.72370179 31.4203443 -49.35730789 23.71882044 -36 16 C-31.75090732 13.5448109 -27.50147847 11.09020543 -23.25152588 8.63650513 C-21.53313114 7.64413321 -19.81514548 6.65105303 -18.09716797 5.65795898 C-16.54860107 4.76379272 -16.54860107 4.76379272 -14.96875 3.8515625 C-13.59879883 3.05999756 -13.59879883 3.05999756 -12.20117188 2.25244141 C-8.03069433 -0.12051221 -4.76903053 -0.89268374 0 0 Z " fill="#102028" transform="translate(254,0)"/>
<path d="M0 0 C1.97388577 0.00061364 3.94777199 0.00034404 5.92165756 -0.00073051 C11.17731203 -0.0011795 16.43287426 0.01035867 21.68850708 0.02449036 C26.63169627 0.03593393 31.57486375 0.03641951 36.51806641 0.0378418 C50.94662666 0.04830999 65.37516999 0.07623249 79.80371094 0.10205078 C112.06121094 0.14330078 144.31871094 0.18455078 177.55371094 0.22705078 C177.55371094 70.84705078 177.55371094 141.46705078 177.55371094 214.22705078 C130.09558594 214.31986328 130.09558594 214.31986328 81.67871094 214.41455078 C66.73227295 214.4555188 66.73227295 214.4555188 51.48388672 214.49731445 C39.25073242 214.51086426 39.25073242 214.51086426 33.51119995 214.51338196 C29.53027254 214.51615996 25.54946698 214.52733425 21.568573 214.54377747 C16.47021347 214.56455321 11.37202783 214.57048801 6.2736299 214.56626761 C4.41532913 214.56714843 2.55702145 214.57297875 0.69875741 214.58469617 C-14.34029419 214.675021 -29.38974005 213.5843524 -43.69628906 208.53955078 C-44.43242432 208.28608887 -45.16855957 208.03262695 -45.92700195 207.77148438 C-53.31825565 205.10657253 -59.85555348 201.49595739 -66.44628906 197.22705078 C-67.37570313 196.63408203 -68.30511719 196.04111328 -69.26269531 195.43017578 C-91.69328024 180.14995199 -107.4861447 156.18163031 -112.98583984 129.62133789 C-114.37974419 122.0921518 -114.7505454 114.81017348 -114.69628906 107.16455078 C-114.70402344 106.07078125 -114.71175781 104.97701172 -114.71972656 103.85009766 C-114.70285896 96.76148724 -113.99449759 90.14179474 -112.44628906 83.22705078 C-112.29063477 82.5192749 -112.13498047 81.81149902 -111.97460938 81.08227539 C-108.05198946 64.40702899 -100.23281551 48.72384022 -88.44628906 36.22705078 C-88.0005957 35.74187988 -87.55490234 35.25670898 -87.09570312 34.75683594 C-63.63602987 9.34084813 -33.81331888 -0.13818133 0 0 Z " fill="#FC6728" transform="translate(322.4462890625,208.77294921875)"/>
</svg>
