<?xml version="1.0" encoding="UTF-8"?>
<svg version="1.1" xmlns="http://www.w3.org/2000/svg" width="284" height="266">
<path d="M0 0 C1.75567774 -0.00271538 3.51135434 -0.00627936 5.26702881 -0.01062012 C10.00253889 -0.01968136 14.73796112 -0.01622589 19.4734726 -0.00986195 C24.44862592 -0.00476933 29.42377213 -0.00950242 34.39892578 -0.01263428 C42.75099018 -0.01626446 51.10301912 -0.01149976 59.45507812 -0.00195312 C69.08675797 0.00892958 78.71835311 0.00540333 88.3500309 -0.00560594 C96.64594048 -0.01470588 104.94182469 -0.01595088 113.23773766 -0.0107286 C118.18098716 -0.00762375 123.12419696 -0.00715846 128.06744385 -0.01380157 C132.71655457 -0.01961391 137.36555695 -0.01550756 142.01465607 -0.00401306 C143.71248445 -0.00138715 145.41032207 -0.00209579 147.10814667 -0.00653839 C165.51152865 -0.05022342 180.94753372 1.76701731 195.3046875 14.25878906 C207.96862586 27.21723762 211.66805096 40.93319454 211.5 58.61035156 C211.49575516 60.32041885 211.49575516 60.32041885 211.49142456 62.06503296 C211.48031682 65.6713962 211.45522982 69.27750212 211.4296875 72.88378906 C211.41964554 75.34342087 211.41052183 77.8030566 211.40234375 80.26269531 C211.38040837 86.26147958 211.34702565 92.26011593 211.3046875 98.25878906 C203.07363685 98.81886415 194.85068902 99.24300923 186.60521507 99.50228119 C182.77385265 99.62686141 178.95562173 99.79492077 175.13183594 100.06933594 C150.561495 101.78658262 150.561495 101.78658262 143.59967041 96.01702881 C139.03687648 90.39231876 136.23840561 84.15573228 133.63504028 77.44430542 C131.41589787 72.13059124 128.40411223 67.30122166 125.4296875 62.38378906 C124.42850323 60.65942061 123.43043349 58.93323418 122.4375 57.20410156 C121.81705811 56.12926514 121.81705811 56.12926514 121.18408203 55.03271484 C120.3046875 53.25878906 120.3046875 53.25878906 120.3046875 51.25878906 C88.6246875 51.25878906 56.9446875 51.25878906 24.3046875 51.25878906 C23.6446875 52.90878906 22.9846875 54.55878906 22.3046875 56.25878906 C21.65273341 57.54785075 20.97580876 58.82461505 20.2734375 60.08691406 C19.88067627 60.79460938 19.48791504 61.50230469 19.08325195 62.23144531 C18.66132568 62.98296875 18.23939941 63.73449219 17.8046875 64.50878906 C17.13602661 65.70568359 17.13602661 65.70568359 16.45385742 66.92675781 C13.18083605 72.75979679 9.8214592 78.53779617 6.41259766 84.29223633 C1.78690467 92.10711041 -2.75583013 99.96984475 -7.27001953 107.84960938 C-9.96036627 112.54370033 -12.64858689 117.22910992 -15.50390625 121.82519531 C-15.89433105 122.46497314 -16.28475586 123.10475098 -16.68701172 123.76391602 C-17.66629291 125.35965762 -18.66611102 126.9427491 -19.66796875 128.52441406 C-20.94662407 131.22145338 -20.94662407 131.22145338 -20.19921875 134.04785156 C-18.20756914 138.30015281 -15.94225445 142.33336714 -13.5703125 146.38378906 C-12.48672748 148.25734144 -11.40340849 150.13104769 -10.3203125 152.00488281 C-9.73765625 153.00890137 -9.155 154.01291992 -8.5546875 155.04736328 C-5.20419238 160.83418219 -1.88810742 166.64068633 1.4296875 172.44628906 C1.77118835 173.04333649 2.11268921 173.64038391 2.46453857 174.25552368 C7.81645348 183.61336008 13.10350785 193.00476721 18.29492188 202.45263672 C19.35939621 204.3566457 20.46480859 206.23383632 21.5703125 208.11425781 C23.3046875 211.25878906 23.3046875 211.25878906 23.3046875 213.25878906 C35.44850186 213.68590592 47.58787145 213.9807166 59.73870277 214.11112976 C65.38309794 214.17577586 71.01923179 214.28426876 76.66015625 214.49658203 C99.92509303 216.4505456 99.92509303 216.4505456 121.55554199 210.15869141 C127.38620997 203.92803114 129.77421261 196.24879203 132.3046875 188.25878906 C138.47799147 171.31573735 138.47799147 171.31573735 145.3046875 166.25878906 C155.22468752 162.98422595 166.06004905 164.07465073 176.32885742 164.74816895 C180.16121765 164.97529752 183.9968035 165.07411286 187.83398438 165.18457031 C195.33299697 165.41897577 202.81609817 165.7930176 210.3046875 166.25878906 C210.40704831 173.40791433 210.47655159 180.55684706 210.52441406 187.70654297 C210.54439059 190.1330471 210.57158133 192.55950395 210.60644531 194.98583984 C210.90232205 216.1236221 209.60934806 232.99265932 194.55859375 249.15722656 C183.82694541 259.16351219 170.20575359 263.40986018 155.74343872 263.40596008 C155.00231114 263.40963677 154.26118356 263.41331346 153.49759758 263.41710156 C151.02459566 263.42807726 148.55163584 263.43197186 146.07861328 263.43579102 C144.30075448 263.44206052 142.52289698 263.44870775 140.74504089 263.45570374 C134.91336979 263.47669679 129.08169858 263.48710487 123.25 263.49707031 C121.23637758 263.50112029 119.2227553 263.50523729 117.20913315 263.50942039 C107.74243839 263.52846529 98.27575137 263.54269518 88.80904114 263.55103236 C77.91337176 263.56078842 67.01790641 263.58706823 56.12230885 263.62753326 C47.68124164 263.65779651 39.24023256 263.67251106 30.7991122 263.67581338 C25.76725945 263.6781531 20.73562483 263.68697165 15.70383072 263.71227455 C10.96115335 263.73573822 6.21883488 263.73971582 1.47611427 263.72951317 C-0.25229405 263.72902204 -1.98072115 263.73521565 -3.70907402 263.74906921 C-18.63444744 263.86188297 -33.35539024 262.55687734 -45.6953125 253.25878906 C-46.47390625 252.67226562 -47.2525 252.08574219 -48.0546875 251.48144531 C-58.2938388 243.0805309 -64.53006402 231.27866266 -66.6953125 218.25878906 C-66.78982812 215.89745878 -66.83015552 213.53373142 -66.83575439 211.17051697 C-66.83872552 210.46825707 -66.84169664 209.76599718 -66.8447578 209.04245669 C-66.85341172 206.69520309 -66.85495025 204.34800069 -66.85644531 202.00073242 C-66.86107596 200.3150522 -66.86610095 198.62937303 -66.87149048 196.94369507 C-66.88459575 192.36688549 -66.89105619 187.79009058 -66.89550114 183.21326518 C-66.89843586 180.35023411 -66.9025415 177.487207 -66.90700531 174.62417793 C-66.92067746 165.65618183 -66.93034459 156.68819484 -66.9342072 147.72018903 C-66.93868255 137.3876589 -66.95620733 127.05526141 -66.9852078 116.72277158 C-67.00687343 108.72424519 -67.01691414 100.72575597 -67.01824832 92.72720057 C-67.01929317 87.95595448 -67.02513222 83.18483313 -67.04306793 78.41361809 C-67.05963243 73.91970089 -67.06166375 69.42600104 -67.05292892 64.93206406 C-67.05216292 63.29067334 -67.05644305 61.64927054 -67.06638718 60.00790977 C-67.16536366 42.63992213 -63.86914701 28.18813749 -51.703125 15.06738281 C-36.56446465 1.43080744 -19.44136642 -0.0508711 0 0 Z " fill="#000000" transform="translate(68.6953125,0.7412109375)"/>
<path d="M0 0 C1.1942157 0.00256805 2.3884314 0.00513611 3.61883545 0.00778198 C7.09646458 0.04752682 10.557628 0.17182783 14.03125 0.33984375 C15.62454636 0.38467896 15.62454636 0.38467896 17.25003052 0.43041992 C24.40212835 0.97435519 24.40212835 0.97435519 27.41171265 3.95727539 C28.97384229 6.26033788 30.25903695 8.57363342 31.5 11.0625 C32.15822754 12.15062988 32.81645508 13.23875977 33.49462891 14.35986328 C34.06616699 15.35743652 34.63770508 16.35500977 35.2265625 17.3828125 C35.8659375 18.49527344 36.5053125 19.60773438 37.1640625 20.75390625 C37.81117188 21.88699219 38.45828125 23.02007812 39.125 24.1875 C40.10726562 25.89873047 40.10726562 25.89873047 41.109375 27.64453125 C42.36422505 29.83162821 43.61355911 32.02190243 44.85644531 34.21582031 C45.83052382 35.90294975 46.83080777 37.57607964 47.88574219 39.21386719 C49.64528371 41.96418917 50.49825672 43.73127771 50.515625 47.03125 C49.23270016 50.86028722 47.36396962 54.14947709 45.25 57.5625 C44.3498557 59.0518388 43.4501393 60.54143628 42.55078125 62.03125 C42.06432129 62.83046875 41.57786133 63.6296875 41.07666016 64.453125 C38.15076205 69.29549089 35.30261614 74.18401606 32.4375 79.0625 C31.3233613 80.95936037 30.20760985 82.85527489 29.08984375 84.75 C28.61409912 85.55824219 28.13835449 86.36648437 27.64819336 87.19921875 C26.5 89.0625 26.5 89.0625 25.5 90.0625 C23.87325222 90.15590434 22.24245949 90.17995171 20.61303711 90.17602539 C19.57203354 90.17594986 18.53102997 90.17587433 17.45848083 90.17579651 C16.3262056 90.17063522 15.19393036 90.16547394 14.02734375 90.16015625 C12.87456436 90.1587413 11.72178497 90.15732635 10.53407288 90.15586853 C6.83518936 90.15025005 3.13636536 90.13769442 -0.5625 90.125 C-3.06315017 90.11998738 -5.56380129 90.11542406 -8.06445312 90.11132812 C-14.20965588 90.10027462 -20.35482369 90.08351852 -26.5 90.0625 C-27.39454157 88.47551037 -28.2890702 86.88851345 -29.18359375 85.30151367 C-29.7156543 84.35762787 -30.24771484 83.41374207 -30.79589844 82.44125366 C-31.94153145 80.4082945 -33.08622515 78.37480597 -34.23046875 76.34106445 C-37.04199455 71.35703393 -39.87886357 66.39377831 -42.8125 61.48046875 C-43.31934326 60.62686768 -43.82618652 59.7732666 -44.34838867 58.89379883 C-45.30559736 57.28791646 -46.2715734 55.68721925 -47.24731445 54.0925293 C-51.41037837 47.08495195 -51.41037837 47.08495195 -50.5 43.0625 C-48.82718239 39.7438457 -46.99161595 36.68419951 -44.94677734 33.58618164 C-41.99347856 28.99790034 -40.04487789 24.87254456 -38.546875 19.609375 C-36.40417685 13.24394347 -34.21873078 7.05411916 -28.51721191 3.03222656 C-20.08284955 -1.02239217 -9.11648289 -0.08030826 0 0 Z " fill="#FE5201" transform="translate(140.5,86.9375)"/>
<path d="M0 0 C7.33208677 -0.15202882 14.66376788 -0.25716455 21.99707031 -0.32958984 C24.49201648 -0.3597785 26.9868564 -0.40073412 29.48144531 -0.45263672 C33.06602162 -0.52535485 36.6491962 -0.55943674 40.234375 -0.5859375 C41.90956207 -0.63238907 41.90956207 -0.63238907 43.61859131 -0.67977905 C51.19790686 -0.68307932 51.19790686 -0.68307932 53.61535645 1.37567139 C54.73535156 3.03662109 54.73535156 3.03662109 56 6 C55.67 6.66 55.34 7.32 55 8 C54.01 7.67 53.02 7.34 52 7 C52 5.35 52 3.7 52 2 C51.15824219 2.33 50.31648438 2.66 49.44921875 3 C45.68982581 4.08992593 42.71240067 4.13375865 38.8125 4 C33.5629378 3.69418352 33.5629378 3.69418352 29 6 C26.51953125 6.1953125 26.51953125 6.1953125 23.8125 6.125 C22.91144531 6.10695313 22.01039063 6.08890625 21.08203125 6.0703125 C20.39496094 6.04710938 19.70789063 6.02390625 19 6 C18.67 5.01 18.34 4.02 18 3 C17.401875 3.495 16.80375 3.99 16.1875 4.5 C11.51663366 6.69805475 7.0804284 6.24023041 2 6 C2 4.68 2 3.36 2 2 C1.34 2 0.68 2 0 2 C0 1.34 0 0.68 0 0 Z " fill="#FE4C1D" transform="translate(114,89)"/>
<path d="M0 0 C7.33208677 -0.15202882 14.66376788 -0.25716455 21.99707031 -0.32958984 C24.49201648 -0.3597785 26.9868564 -0.40073412 29.48144531 -0.45263672 C33.06602162 -0.52535485 36.6491962 -0.55943674 40.234375 -0.5859375 C41.90956207 -0.63238907 41.90956207 -0.63238907 43.61859131 -0.67977905 C51.19790686 -0.68307932 51.19790686 -0.68307932 53.61535645 1.37567139 C54.73535156 3.03662109 54.73535156 3.03662109 56 6 C55.67 6.66 55.34 7.32 55 8 C54.01 7.67 53.02 7.34 52 7 C52 5.35 52 3.7 52 2 C51.2575 2.33 50.515 2.66 49.75 3 C44.4878448 4.40324139 39.4142163 4.15769562 34 4 C33.505 3.01 33.505 3.01 33 2 C22.11 1.67 11.22 1.34 0 1 C0 0.67 0 0.34 0 0 Z " fill="#EE512D" transform="translate(114,89)"/>
<path d="M0 0 C6.10532936 0.02810278 11.45860875 0.12667709 17.20703125 2.265625 C16.87703125 2.925625 16.54703125 3.585625 16.20703125 4.265625 C-0.95296875 4.265625 -18.11296875 4.265625 -35.79296875 4.265625 C-35.79296875 3.935625 -35.79296875 3.605625 -35.79296875 3.265625 C-34.86436035 3.24580566 -33.93575195 3.22598633 -32.97900391 3.20556641 C-29.53846355 3.12753887 -26.09836984 3.04085038 -22.65820312 2.94824219 C-21.16837986 2.90992502 -19.67846321 2.87507692 -18.18847656 2.84375 C-16.04848827 2.79815771 -13.90914439 2.74015626 -11.76953125 2.6796875 C-10.48127441 2.6482666 -9.19301758 2.6168457 -7.86572266 2.58447266 C-4.16036329 2.19998201 -3.63039202 0.34526805 0 0 Z " fill="#ED551F" transform="translate(149.79296875,172.734375)"/>
<path d="M0 0 C3.0390625 -0.29296875 3.0390625 -0.29296875 6.625 -0.1875 C7.81351563 -0.16042969 9.00203125 -0.13335937 10.2265625 -0.10546875 C11.14179688 -0.07066406 12.05703125 -0.03585938 13 0 C13 0.99 13 1.98 13 3 C8.05 3 3.1 3 -2 3 C-1.34 2.01 -0.68 1.02 0 0 Z " fill="#FE4F12" transform="translate(131,173)"/>
<path d="M0 0 C-3.92826365 2.77675038 -6.53124892 3.34512366 -11.3125 3.1875 C-12.91544922 3.14689453 -12.91544922 3.14689453 -14.55078125 3.10546875 C-15.35902344 3.07066406 -16.16726562 3.03585938 -17 3 C-17.33 2.34 -17.66 1.68 -18 1 C-17.15695313 0.93941406 -16.31390625 0.87882812 -15.4453125 0.81640625 C-14.34960938 0.73261719 -13.25390625 0.64882812 -12.125 0.5625 C-11.03445312 0.48128906 -9.94390625 0.40007812 -8.8203125 0.31640625 C-1.63306452 -0.48991935 -1.63306452 -0.48991935 0 0 Z " fill="#FE4E13" transform="translate(166,92)"/>
</svg>
